<?xml version="1.0" encoding="UTF-8"?>
<!DOCTYPE svg PUBLIC "-//W3C//DTD SVG 1.1//EN" "http://www.w3.org/Graphics/SVG/1.1/DTD/svg11.dtd">
<svg xmlns="http://www.w3.org/2000/svg" style="background: transparent; background-color: transparent; color-scheme: light dark;" xmlns:xlink="http://www.w3.org/1999/xlink" version="1.1" width="200px" height="200px" viewBox="-0.5 -0.5 200 200"><defs/><g><g data-cell-id="0"><g data-cell-id="1"><g data-cell-id="NISO0k0YKw3UAR4flL04-8"><g/><g data-cell-id="NISO0k0YKw3UAR4flL04-9"><g><path d="M 60 143 Q 60 80 60 60 Q 60 40 60 35 Q 60 30 50 20" fill="none" stroke="#000000" stroke-width="5" stroke-miterlimit="10" pointer-events="stroke" style="stroke: light-dark(rgb(0, 0, 0), rgb(255, 255, 255));"/></g></g><g data-cell-id="NISO0k0YKw3UAR4flL04-10"><g><path d="M 90 143 Q 90 80 90 60 Q 90 40 80 30.75 Q 70 21.5 60 41.5" fill="none" stroke="#000000" stroke-width="5" stroke-miterlimit="10" pointer-events="stroke" style="stroke: light-dark(rgb(0, 0, 0), rgb(255, 255, 255));"/></g></g><g data-cell-id="NISO0k0YKw3UAR4flL04-11"><g><path d="M 150 171.5 Q 120 141.5 120 110.75 Q 120 80 120 60 Q 120 40 110 30.75 Q 100 21.5 89 44.5" fill="none" stroke="#000000" stroke-width="5" stroke-miterlimit="10" pointer-events="stroke" style="stroke: light-dark(rgb(0, 0, 0), rgb(255, 255, 255));"/></g></g><g data-cell-id="NISO0k0YKw3UAR4flL04-12"><g><path d="M 110 161.5 Q 130 141.5 135 131.5 Q 140 121.5 140 106.5 Q 140 91.5 135 86.5 Q 130 81.5 120 101.5" fill="none" stroke="#000000" stroke-width="5" stroke-miterlimit="10" pointer-events="stroke" style="stroke: light-dark(rgb(0, 0, 0), rgb(255, 255, 255));"/></g></g></g><g data-cell-id="34pg9PiOzKNUfzoN4yK9-1"><g><rect x="0" y="0" width="200" height="200" fill="none" stroke="none" pointer-events="all"/></g></g></g></g></g></svg>